<svg xmlns="http://www.w3.org/2000/svg" viewBox="-23 -8 146 146">
<rect x="-23" y="-8" width="146" height="146" rx="32" fill="#EFE9D8"/>
<path d="M8,55 C8,25 30,6 50,6 C70,6 92,25 92,55 C92,62 86,64 75,61 C62,57 38,57 25,61 C14,64 8,62 8,55 Z" fill="#7A5233"/>
<path d="M14,26 C20,15 32,8 44,7 C34,10 24,18 19,30 C17,34 15,38 14,42 C12,36 12,31 14,26 Z" fill="#96694A" opacity="0.55"/>
<path d="M25,60 C38,57 62,57 75,60 C75,63 70,65 60,66 C57,66.5 43,66.5 40,66 C30,65 25,63 25,60 Z" fill="#DACBA5"/>
<path d="M38,58 L35,80 C33,95 26,102 29,112 C32,120 42,124 50,124 C58,124 68,120 71,112 C74,102 67,95 65,80 L62,58 Z" fill="#EDE3C8"/>
<path d="M60,60 L62,80 C64,95 70,102 68,112 C66,118 60,122 55,123 C63,120 66,113 64,105 C61,92 58,75 58,60 Z" fill="#D8C9A0" opacity="0.7"/>
</svg>
